<svg width="20" height="18" viewBox="0 0 20 18" fill="none" xmlns="http://www.w3.org/2000/svg">
<path d="M20 16H0V18H20V16ZM2 12C2 12.5 2.2 13 2.6 13.4C3 13.8 3.5 14 4 14V3C3.5 3 3 3.2 2.6 3.6C2.2 4 2 4.5 2 5V12ZM11.5 3H8.5C8.5 2.6 8.6 2.2 8.9 1.9C9.2 1.6 9.5 1.5 10 1.5C10.4 1.5 10.8 1.6 11.1 1.9C11.3 2.2 11.5 2.6 11.5 3ZM5 3V14H15V3H13C13 2.2 12.7 1.5 12.1 0.9C11.5 0.3 10.8 0 10 0C9.2 0 8.5 0.3 7.9 0.9C7.3 1.5 7 2.2 7 3H5ZM16 14C16.5 14 17 13.8 17.4 13.4C17.8 13 18 12.5 18 12V5C18 4.5 17.8 4 17.4 3.6C17 3.2 16.5 3 16 3V14Z" fill="#61A199"/>
</svg>
