<svg width="22" height="20" viewBox="0 0 22 20" fill="none" xmlns="http://www.w3.org/2000/svg">
<path d="M6.05012 1.50078C4.68012 2.88078 4.68012 5.10078 6.05012 6.47078L14.5401 14.9508C15.1201 15.5408 15.1201 16.5008 14.5401 17.0708C13.9501 17.6608 13.0001 17.6608 12.4101 17.0708L8.17012 12.8308L9.23012 11.7708L5.70012 8.23078L5.34012 8.59078L3.93012 7.17078C3.54012 6.78078 2.91012 6.78078 2.50012 7.17078L1.10012 8.59078C0.710117 9.00078 0.710117 9.61078 1.10012 10.0008L2.50012 11.4108L2.16012 11.7708L5.70012 15.3008L6.76012 14.2408L11.0001 18.5008C12.3701 19.8508 14.5801 19.8508 15.9501 18.5008C17.3201 17.1208 17.3201 14.9008 15.9501 13.5408L7.46012 5.05078C6.88012 4.46078 6.88012 3.50078 7.46012 2.93078C8.05012 2.34078 9.00012 2.34078 9.59012 2.93078L13.8301 7.17078L12.7701 8.23078L16.3001 11.7708L16.6601 11.4108L18.0701 12.8308C18.4601 13.2208 19.1001 13.2208 19.5001 12.8308L20.9001 11.4108C21.2901 11.0008 21.2901 10.3908 20.9001 10.0008L19.5001 8.59078L19.8401 8.23078L16.3001 4.70078L15.2401 5.76078L11.0001 1.50078C9.63012 0.150781 7.42012 0.150781 6.05012 1.50078ZM1.81012 9.29078L3.22012 7.88078L4.64012 9.29078L3.22012 10.7108L1.81012 9.29078ZM17.3601 10.7108L18.7801 9.29078L20.1901 10.7108L18.7801 12.1208L17.3601 10.7108Z" fill="#61A199"/>
</svg>
