<svg width="20" height="20" viewBox="0 0 20 20" fill="none" xmlns="http://www.w3.org/2000/svg">
<path d="M3 16C3 16 0 8 0 4C0 0 2 0 2 0H3C3 0 4 0 4 1C4 2 3 2 3 4C3 6 6 8 6 11C6 14 3 16 3 16ZM13 15C14.1 15 15 15.9 15 17V18C15 19.1 14.1 20 13 20H7C5 20 4 18.2 4 18.2C3.8 18 3.7 17.6 4 17.4C4 17.4 7 14.9 8 14.9H13V15ZM11.7 1.4L10.3 4.8L11.7 8.2L9.7 13L8 11.6L9.4 8.2L8 4.8L10 0L11.7 1.4ZM15.9 1.4L14.5 4.8L15.9 8.2L13.9 13L12.2 11.6L13.6 8.2L12.2 4.8L14.2 0L15.9 1.4ZM20 1.4L18.6 4.8L20 8.2L18 13L16.3 11.6L17.7 8.2L16.3 4.8L18.3 0L20 1.4Z" fill="#61A199"/>
</svg>
