<svg width="20" height="20" viewBox="0 0 20 20" fill="none" xmlns="http://www.w3.org/2000/svg">
<path d="M18.8 8.2L17.4 8.6L16.2 7.9V6.2L17.4 5.5L18.8 5.9L19.1 4.8L18 4.5L18.3 3.4L17.2 3.1L16.8 4.5L15.6 5.2L14.1 4.3V3L15.1 2L14.3 1.2L13.5 2L12.7 1.2L11.9 2L12.9 3V4.3L11.4 5.2L10.2 4.5L9.9 3.1L8.8 3.4L9.1 4.5L8 4.7L8.3 5.8L9.7 5.4L10.9 6.1V7.8L9.7 8.5L8.3 8.1L8 9.4L9.1 9.7L8.8 10.7L9.9 11L10.3 9.6L11.5 8.9L13 9.8V11.1L12 12.1L12.8 12.9L13.6 12.1L14.4 12.9L15.2 12.1L14.2 11.1V9.8L15.7 8.9L16.9 9.6L17.3 11L18.4 10.7L18 9.6L19.1 9.3L18.8 8.2ZM12 6.2L13.5 5.3L15 6.2V7.9L13.5 8.8L12 7.9V6.2ZM3 16C3 16 0 8 0 4C0 0 2 0 2 0H3C3 0 4 0 4 1C4 2 3 2 3 4C3 6 6 8 6 11C6 14 3 16 3 16ZM13 15C14.1 15 15 15.9 15 17V18C15 19.1 14.1 20 13 20H7C5 20 4 18.2 4 18.2C3.8 18 3.7 17.6 4 17.4C4 17.4 7 14.9 8 14.9H13V15Z" fill="#61A199"/>
</svg>
